<?xml version="1.0" encoding="UTF-8" standalone="no"?>
<!-- Created with Inkscape (http://www.inkscape.org/) -->

<svg
   version="1.1"
   id="svg55"
   width="666"
   height="172"
   viewBox="0 0 666 172"
   sodipodi:docname="logo-l-t.svg"
   inkscape:version="1.1.2 (0a00cf5339, 2022-02-04)"
   xmlns:inkscape="http://www.inkscape.org/namespaces/inkscape"
   xmlns:sodipodi="http://sodipodi.sourceforge.net/DTD/sodipodi-0.dtd"
   xmlns="http://www.w3.org/2000/svg"
   xmlns:svg="http://www.w3.org/2000/svg">
  <defs
     id="defs59" />
  <sodipodi:namedview
     id="namedview57"
     pagecolor="#ffffff"
     bordercolor="#666666"
     borderopacity="1.0"
     inkscape:pageshadow="2"
     inkscape:pageopacity="0.0"
     inkscape:pagecheckerboard="0"
     showgrid="false"
     inkscape:zoom="0.82282282"
     inkscape:cx="333"
     inkscape:cy="86.288321"
     inkscape:window-width="1280"
     inkscape:window-height="657"
     inkscape:window-x="0"
     inkscape:window-y="0"
     inkscape:window-maximized="1"
     inkscape:current-layer="g61" />
  <g
     inkscape:groupmode="layer"
     inkscape:label="Image"
     id="g61">
    <path
       style="fill:#000000"
       d="m 21.167137,156.49873 c -6.605042,-3.25977 -8.60984,-12.72667 -3.884385,-18.34256 6.900149,-8.20036 19.755788,-4.59417 21.168455,5.93805 1.334258,9.94763 -8.280518,16.84801 -17.28407,12.40451 z m 39.349965,-0.17726 c -4.164045,-2.58271 -6.209713,-7.19074 -5.495456,-12.37896 l 0.604686,-4.39232 -11.120914,-11.18311 -11.120914,-11.18311 -4.754624,0.56312 c -10.806783,1.2799 -17.56123,-9.19837 -11.907206,-18.471825 2.499294,-4.09922 6.160153,-5.56037 12.19891,-4.868924 l 4.703109,0.538513 10.883353,-11.396824 10.883352,-11.396828 -0.44339,-5.3467 c -0.387571,-4.6736 -0.111078,-5.74164 2.196265,-8.48376 5.522705,-6.56336 14.660985,-6.21933 19.375949,0.72945 6.142847,9.05315 -3.124583,21.958822 -13.072134,18.204041 -2.844487,-1.073671 -3.197562,-0.820391 -14.075454,10.097329 l -11.15778,11.198629 -0.05385,7.210099 -0.05385,7.21011 11.055657,11.00247 c 10.963064,10.91032 11.085626,10.99561 14.633925,10.18394 13.438789,-3.07413 20.749864,15.24726 8.881899,22.25784 -3.536375,2.08899 -8.707158,2.04937 -12.161541,-0.0932 z m 40.573408,0.14015 c -4.446856,-2.19364 -6.789607,-7.01438 -6.153106,-12.6614 l 0.512731,-4.54894 -11.615829,-11.57286 c -9.034021,-9.00061 -11.94923,-11.36016 -13.11583,-10.61586 -3.825719,2.44083 -11.503334,-0.2087 -14.293937,-4.93282 -7.895472,-13.365968 11.380151,-25.909413 20.09946,-13.079549 1.999507,2.942139 2.286938,4.302209 1.803322,8.533029 l -0.575315,5.03303 11.233235,11.0057 11.233239,11.0057 6.76418,-0.0699 6.76417,-0.0699 10.96914,-10.93513 10.96914,-10.93512 -0.5754,-5.03369 c -0.4837,-4.23156 -0.19635,-5.59142 1.80325,-8.533689 7.05396,-10.379422 22.86165,-4.519202 21.49214,7.967559 -0.81628,7.44253 -8.49682,12.67493 -15.00137,10.21974 -2.91215,-1.09922 -3.15252,-0.92074 -14.27045,10.59588 -11.30078,11.70603 -11.30802,11.71669 -10.74563,15.81984 0.76079,5.55054 -1.69484,10.56193 -6.23677,12.72782 -4.31404,2.05723 -7.01354,2.07689 -11.06037,0.0806 z m 41.04641,0.61972 c -1.14486,-0.46315 -3.33077,-2.32668 -4.85757,-4.14118 -2.40762,-2.86129 -2.71445,-3.93983 -2.3121,-8.12717 1.06849,-11.12001 14.00999,-15.18615 21.18695,-6.65682 7.80861,9.28 -2.72023,23.49531 -14.01728,18.92517 z m -41.54564,-40.71486 c -5.812737,-3.60751 -7.512127,-11.11529 -3.868606,-17.091215 2.485569,-4.076709 6.156466,-5.560655 12.079466,-4.88307 l 4.58366,0.524366 10.88516,-10.919009 10.88515,-10.91901 0.0701,-6.76418 0.0701,-6.76417 -11.36458,-11.59088 -11.36459,-11.59087 -3.70898,0.98998 c -10.456146,2.79091 -18.669823,-10.77104 -11.606978,-19.16475 5.417718,-6.4386 14.592058,-6.03087 19.272798,0.85652 1.99951,2.94214 2.28694,4.30221 1.80332,8.53303 l -0.57531,5.03303 11.24686,11.21495 11.24686,11.21496 3.47527,-0.9967 c 7.35558,-2.10955 14.99748,3.58369 14.99748,11.17316 0,8.21411 -5.905,13.523633 -13.83198,12.43712 l -4.61382,-0.632394 -11.23209,11.200228 -11.23209,11.200228 0.58728,4.284706 c 0.34554,2.52099 0.0728,5.52685 -0.66266,7.30235 -2.52663,6.0998 -11.44834,8.88513 -17.14184,5.35162 z m 94.3772,-1.8173 c -2.8875,-1.31219 -5.25,-2.70629 -5.25,-3.098 0,-0.56568 2.20183,-3.80172 5.63323,-8.2792 0.15942,-0.20801 2.43506,0.63017 5.05699,1.86262 3.57525,1.68057 5.39754,2.01913 7.28846,1.35413 4.29431,-1.51023 2.87923,-3.64885 -4.98166,-7.528847 -8.24713,-4.070639 -10.99702,-7.337922 -10.99702,-13.066101 0,-11.12992 14.81306,-16.91278 27.2532,-10.63936 2.33574,1.17788 4.40764,2.284639 4.60423,2.459455 0.62692,0.557483 -5.316,8.394044 -6.35743,8.383159 -0.55,-0.0057 -1.87351,-0.67114 -2.94113,-1.478648 -2.49878,-1.88998 -8.17292,-1.916339 -8.89244,-0.04131 -0.69753,1.817742 0.33004,2.594623 8.58455,6.490198 7.37552,3.480756 9.74902,6.496101 9.74902,12.385374 0,4.37485 -3.61463,9.72754 -8.03566,11.89951 -5.1545,2.53231 -14.2762,2.22275 -20.71434,-0.70298 z m 46.24142,0.63603 c -4.61659,-2.09727 -10.11383,-7.92571 -11.22697,-11.90336 -1.33993,-4.788072 -0.79409,-15.516002 0.95616,-18.792446 7.23566,-13.545002 24.47809,-15.834902 32.96103,-4.377424 2.22582,3.006309 4.29534,12.901633 3.42418,16.372599 l -0.64392,2.565612 h -11.98095 c -7.66791,0 -11.98095,0.376355 -11.98095,1.045459 0,0.575 1.15757,2.20302 2.57237,3.61782 2.27241,2.27241 3.17615,2.51555 7.75,2.08509 2.8477,-0.26801 5.87471,-0.78448 6.72669,-1.14771 1.10332,-0.47039 2.18239,0.46643 3.75,3.25561 1.21052,2.15382 2.20094,4.13685 2.20094,4.40674 0,0.26989 -2.22092,1.44612 -4.93538,2.61385 -6.11926,2.63243 -14.11473,2.73789 -19.5732,0.25816 z m 13.49327,-26.885019 c -0.0232,-2.653426 -1.22737,-4.02182 -4.19438,-4.766494 -2.09942,-0.52692 -3.24933,-0.115395 -5.23999,1.875262 -3.83024,3.830246 -3.22746,4.641232 3.44968,4.641232 5.05345,0 5.99758,-0.276076 5.98469,-1.75 z m 135.92259,26.423229 c -2.424,-1.27973 -5.75728,-4.24349 -7.40728,-6.58614 -2.78511,-3.95427 -3,-4.89171 -3,-13.087089 0,-8.199321 0.2142,-9.132492 3.00915,-13.109215 4.08771,-5.816104 10.85675,-9.225714 18.30222,-9.218954 5.37162,0.005 12.18863,2.32977 12.18863,4.156847 0,0.427524 -1.37385,2.645456 -3.05299,4.928737 -2.75598,3.747553 -3.28387,4.046224 -5.42626,3.070087 -3.24954,-1.480591 -7.16062,-0.306761 -9.16368,2.750285 -2.09239,3.193399 -2.30974,10.271891 -0.42365,13.797062 2.05339,3.83786 8.48862,5.13411 11.84075,2.38507 1.49811,-1.22858 1.22395,-1.48919 4.61279,4.38475 l 2.67963,4.64468 -4.34902,2.10532 c -6.02274,2.91556 -14.038,2.82596 -19.81029,-0.22144 z m 39.59272,1.00069 c -5.46524,-2.13859 -8.37596,-4.784 -10.95228,-9.95401 -8.24682,-16.549194 4.42166,-35.834178 21.48952,-32.713098 8.92006,1.63115 13.9202,8.53037 13.94631,19.243189 l 0.0164,6.75 h -12 c -7.68116,0 -12,0.376263 -12,1.045459 0,0.575 1.15757,2.20302 2.57237,3.61782 2.27241,2.27241 3.17615,2.51555 7.75,2.08509 2.8477,-0.26801 5.87527,-0.78469 6.72794,-1.14819 1.44478,-0.61591 2.0272,0.15281 5.7264,7.55822 0.18089,0.36211 -2.18675,1.59961 -5.26142,2.75 -6.11836,2.28917 -13.3376,2.59594 -18.01529,0.76552 z m 12.31955,-27.890501 c -0.17575,-1.21912 -1.53643,-2.89738 -3.02372,-3.729467 -2.4963,-1.396589 -2.91909,-1.352575 -5.5,0.572561 -1.53771,1.146995 -2.94133,2.825255 -3.11915,3.729467 -0.2718,1.38203 0.6556,1.644021 5.81955,1.644021 5.77239,0 6.1236,-0.133685 5.82332,-2.216582 z m 96.18759,27.623601 c -8.27407,-3.5881 -12.47701,-10.66327 -12.41964,-20.907019 0.0612,-10.92221 5.30059,-18.248769 15.08412,-21.092919 12.49884,-3.63351 24.60429,5.115709 26.00587,18.795762 1.0296,10.049336 -3.35792,18.552826 -11.79297,22.856066 -4.56231,2.32752 -11.96101,2.48012 -16.87738,0.34811 z m 11.53831,-11.86157 c 2.00889,-2.00888 2.45455,-3.44958 2.45455,-7.934895 0,-9.03874 -2.66611,-12.803466 -7.89245,-11.144688 -4.76611,1.512705 -5.61721,16.083513 -1.15072,19.700263 2.94539,2.38503 3.64922,2.31873 6.58862,-0.62068 z m 83.35243,11.16722 c -5.16575,-3.4774 -6.34334,-6.79455 -6.73172,-18.962669 l -0.34311,-10.75 H 623.63 c -2.86245,0 -2.91152,-0.0927 -2.91152,-5.5 v -5.499999 h 3.43873 c 3.34642,0 3.45579,-0.1275 4.07465,-4.75 0.98099,-7.32753 0.90715,-7.25 6.90533,-7.25 h 5.48148 l 0.29991,5.75 0.2999,5.75 4.75,0.30479 4.75,0.30479 v 5.44521 5.445209 h -5.0995 -5.0995 l 0.3495,9.081214 c 0.29556,7.679765 0.65815,9.309175 2.3495,10.558405 1.1,0.81246 3.00877,1.28903 4.24172,1.05904 1.85888,-0.34674 2.41297,0.19832 3.24443,3.19159 2.00995,7.23589 1.12503,8.0701 -8.58827,8.0961 -3.67515,0.01 -6.05244,-0.62607 -8.5,-2.27368 z M 275.71848,94.500287 V 72.950382 l 5.75,0.2999 c 5.68475,0.29651 5.75356,0.33679 6.06336,3.549909 0.17235,1.7875 0.4469,3.25 0.61012,3.25 0.16322,0 1.92706,-1.537564 3.91964,-3.416809 3.84101,-3.62255 8.2607,-5.1611 11.69485,-4.07114 1.67801,0.53258 1.97397,1.22744 1.52247,3.57452 -1.841,9.570358 -1.44374,8.911759 -5.3899,8.935665 -3.9115,0.02369 -7.23204,2.10035 -9.0535,5.662023 -0.63243,1.236649 -1.11704,7.201889 -1.11704,13.75 v 11.56574 h -7 -7 z m 38.60445,1.186344 c -3.63245,-11.199957 -6.60445,-20.895519 -6.60445,-21.545689 0,-0.82196 2.0566,-1.09204 6.75,-0.88644 l 6.75,0.29569 3.68724,14.499999 c 2.02798,7.975 3.84499,15.174999 4.03779,15.999999 0.19281,0.825 2.13355,-5.699999 4.31276,-14.499999 l 3.96221,-15.999999 6.75,-0.29569 c 3.7125,-0.16263 6.75,-0.0704 6.75,0.20484 0,0.40282 -5.53488,18.348742 -12.1335,39.340848 l -1.0216,3.25 h -8.318 -8.318 z m 42.62566,-0.88644 0.26989,-21.249999 h 7 7 l 0.26989,21.249999 0.26989,21.249999 h -7.53978 -7.53978 z m 108.76989,5.749999 V 85.050191 h -3 c -2.96525,0 -3,-0.06294 -3,-5.433578 0,-5.172701 0.13096,-5.448771 2.72756,-5.750001 2.35559,-0.27327 2.82604,-0.89745 3.44964,-4.57687 0.99688,-5.88187 3.609,-9.91021 7.67825,-11.8412 3.66378,-1.73858 11.13289,-2.22789 14.95499,-0.97972 1.97438,0.64476 2.21806,1.21465 1.67534,3.91794 -1.27913,6.37137 -1.49184,6.66343 -4.85317,6.66343 -3.61481,0 -5.63261,1.50459 -5.63261,4.2 0,1.39047 0.7963,1.8 3.5,1.8 h 3.5 v 5.999999 6 h -3.5 -3.5 v 15.499999 15.5 h -7 -7 z m 28,-5.999999 V 73.050192 h 5.39301 c 5.59098,0 6.60699,0.78147 6.60699,5.081786 0,2.590618 0.82209,2.414103 3.27398,-0.702967 3.25219,-4.134489 10.35836,-6.533979 13.48034,-4.551819 0.98674,0.62649 1.01063,2.00986 0.11195,6.484688 l -1.14237,5.688311 h -3.93888 c -3.02015,0 -4.62065,0.681788 -6.86194,2.923077 -2.92088,2.920881 -2.92308,2.932524 -2.92308,15.500002 v 12.57692 h -7 -7 z m 82,-0.0499 V 72.950382 l 5.75,0.29991 c 5.09369,0.26567 5.78647,0.55672 6.06955,2.5499 0.39611,2.789035 0.40568,2.788636 4.95189,-0.20621 7.91037,-5.21101 16.61095,-3.74315 20.39375,3.440611 1.56823,2.978154 1.83481,5.920257 1.83481,20.25 v 16.765597 h -7 -7 v -14.3 c 0,-15.372412 -0.40106,-16.699999 -5.04501,-16.699999 -5.17243,0 -5.95499,2.277201 -5.95499,17.328739 v 13.67126 h -7 -7 V 94.500287 Z M 21.048704,76.342802 c -6.851059,-3.41384 -8.393019,-13.68491 -2.881706,-19.19519 2.266689,-2.26627 3.444309,-2.60132 9.236746,-2.62799 l 6.638842,-0.0306 10.674742,-11.16487 10.674742,-11.16487 -0.443726,-5.35076 c -0.387948,-4.67814 -0.111911,-5.7451 2.195929,-8.48781 5.522373,-6.56296 14.657403,-6.21912 19.379726,0.72945 1.999507,2.94214 2.286938,4.30221 1.803322,8.53303 l -0.575315,5.03303 11.246862,11.21495 11.246862,11.21496 3.47527,-0.9967 c 7.35558,-2.10955 14.99748,3.58369 14.99748,11.17316 0,5.14611 -2.39784,9.16999 -6.68177,11.21286 -4.43703,2.11587 -7.12041,2.03272 -11.0139,-0.34129 -5.051678,-3.0802 -6.670122,-6.30768 -6.000065,-11.96526 l 0.575416,-4.85849 -11.527399,-11.5488 C 73.308016,36.938902 72.382704,36.246022 70.12139,37.276352 c -1.69418,0.77192 -3.41878,0.79759 -5.739186,0.0854 -3.289616,-1.00961 -3.414058,-0.92459 -14.957123,10.21891 l -11.639908,11.23699 0.512321,4.86623 c 0.614088,5.83286 -0.786582,8.9156 -5.49147,12.08622 -3.911371,2.635876 -7.286784,2.800273 -11.75732,0.57263 z M 359.35334,65.977612 c -5.4574,-4.29279 -2.28645,-12.32742 4.86514,-12.32742 4.4938,0 7.5,2.79874 7.5,6.98241 0,3.71656 -3.74215,7.41759 -7.5,7.41759 -1.22666,0 -3.41597,-0.93266 -4.86514,-2.07258 z M 21.08519,36.132132 c -4.478905,-2.73111 -6.366714,-5.91201 -6.366714,-10.72772 0,-3.03634 0.702057,-5.03512 2.532726,-7.21074 7.215946,-8.5756703 19.96209,-4.80507 21.210938,6.27467 0.598879,5.31324 -1.122805,8.62277 -6.047998,11.62585 -4.030941,2.45782 -7.342251,2.46891 -11.328952,0.0379 z m 119.93762,-0.0379 c -4.92519,-3.00308 -6.64687,-6.31262 -6.04799,-11.62586 1.24884,-11.07974 13.99499,-14.8503303 21.21093,-6.27467 4.74938,5.64431 2.6363,15.1559 -4.07446,18.34037 -4.26439,2.02358 -7.24206,1.90547 -11.08848,-0.43984 z"
       id="path145" />
  </g>
</svg>
